:SAMPLES-PER-SECOND 30
:FULLY-SPECIFIED
:DEGREES
70
root  34.80229115 36.50839197 -14.94658012 8.488737106 -4.240200043 3.758068562
lowerback  -7.415599346 -1.13850987 -0.349853754
upperback  -3.910900116 -1.090469956 -2.981770039
thorax  0.06723889709 -0.4070760012 -2.957109928
lowerneck  -9.697660446 -9.765029907 -8.523739815
upperneck  16.88249969 -13.42660141 10.10379982
head  8.092889786 -5.882649899 3.311340094
lclavicle  0 -4.497500157e-015 -2.743230041e-014
lhumerus  -47.69129944 26.80240059 66.77729797
lradius  -0.03285451606 -6.507048965e-006 31.0223999
lwrist  4.824992743e-007 -3.790274832e-007 -26.19930077
lhand  -0 -36.96649933 -10.76809978
lfingers  90 7.125020027 -90
lthumb  94.86715748 -25.5998135 101.148714
rclavicle  0 -4.497500157e-015 -2.743230041e-014
rhumerus  -62.39519501 -23.42469788 -41.21360397
rradius  -5.16745672e-007 2.214343908e-008 97.79000092
rwrist  -7.499573258e-005 0.03438235447 -177.2339935
rhand  -1.766216462e-031 1.559190035 -8.21914959
rfingers  -90 -7.125020027 -90
rthumb  -86.01325473 -7.742751623 -62.64720439
rfemur  -12.72908974 16.31576729 13.03530788
rtibia  -1.544775486 -0.7673791051 21.67440414
rfoot  -0.2780745327 -21.42865181 -37.09984589
rtoes  4.165094407 19.57888603 -102.2605539
lfemur  -8.592723846 -17.30239677 -20.20533943
ltibia  2.320803642 -0.8898487687 15.25970268
lfoot  0.9463800788 -24.00221252 37.26104355
ltoes  -8.578025173 -18.13546259 -115.8555191
71
root  34.8024954 36.50514498 -14.94659214 8.503437042 -4.302649975 3.766210079
lowerback  -7.342460155 -1.161759973 -0.3810408711
upperback  -3.962270021 -1.118409991 -2.985229969
thorax  -0.02698469907 -0.4197140038 -2.943429947
lowerneck  -9.374369621 -10.17179966 -8.765740395
upperneck  16.88920021 -13.9822998 10.17230034
head  8.117159843 -6.162650108 3.312119961
lclavicle  0 -4.497500157e-015 -2.743230041e-014
lhumerus  -47.79439926 26.77420044 66.71289825
lradius  -0.0332804881 -6.507048965e-006 31.00250053
lwrist  4.824992743e-007 -3.790274832e-007 -26.34460068
lhand  -4.417488415e-031 -36.93180084 -10.74450016
lfingers  90 7.125020027 -90
lthumb  94.84582697 -25.5779152 101.1094848
rclavicle  0 -4.497500157e-015 -2.743230041e-014
rhumerus  -62.46279907 -23.39609909 -40.27339935
rradius  -5.16745672e-007 2.214343908e-008 98.81710052
rwrist  -7.499573258e-005 0.03438235447 -177.8789978
rhand  -1.766128616e-031 1.450719953 -8.131480217
rfingers  -90 -7.125020027 -90
rthumb  -85.99423847 -7.813600183 -62.74712562
rfemur  -12.76104164 16.28541565 13.00800514
rtibia  -1.54585588 -0.8131866455 21.67827606
rfoot  -0.2737523019 -21.5089016 -37.03004456
rtoes  4.156651434 19.58061289 -102.2353599
lfemur  -8.591418266 -17.39702797 -20.22760391
ltibia  2.328181267 -0.9473575354 15.2503109
lfoot  0.9480029345 -23.87115288 37.35138321
ltoes  -8.570867318 -18.13875736 -115.8325251
72
root  34.80347761 36.50714544 -14.94748123 8.497282028 -4.397108078 3.767794132
lowerback  -7.307280064 -1.174090028 -0.406950444
upperback  -4.002709866 -1.130399942 -3.005970001
thorax  -0.08868350089 -0.4241299927 -2.95024991
lowerneck  -8.94464016 -10.57079983 -9.052729607
upperneck  16.76819992 -14.54500008 10.38780022
head  8.098050117 -6.443009853 3.372370005
lclavicle  0 -4.497500157e-015 -2.743230041e-014
lhumerus  -48.01319885 26.78280067 66.64499664
lradius  -0.03370606527 -6.507048965e-006 31.14649963
lwrist  4.824992743e-007 -3.790274832e-007 -26.39189911
lhand  -4.416740957e-031 -36.91889954 -10.75030041
lfingers  90 7.125020027 -90
lthumb  94.84098415 -25.58407102 101.0961775
rclavicle  0 -4.497500157e-015 -2.743230041e-014
rhumerus  -62.46820068 -23.34919739 -39.39980316
rradius  -5.16745672e-007 2.214343908e-008 99.87840271
rwrist  -7.499573258e-005 0.03438235447 -178.0350037
rhand  -1.766510511e-031 1.877159953 -8.203920364
rfingers  -90 -7.125020027 -90
rthumb  -85.94253579 -7.777292127 -62.3369826
rfemur  -12.76363945 16.34002113 12.996665
rtibia  -1.546925306 -0.8314176202 21.66929626
rfoot  -0.2549617887 -21.54311943 -36.97885513
rtoes  4.143133575 19.58337005 -102.1950268
lfemur  -8.589981079 -17.3195858 -20.22963142
ltibia  2.322057486 -0.9491504431 15.25848866
lfoot  0.9691861272 -23.87594795 37.40034485
ltoes  -8.576470913 -18.13617831 -115.8505258
73
root  34.80397022 36.50602806 -14.94841538 8.516525269 -4.476689339 3.784970999
lowerback  -7.319410324 -1.189669967 -0.4184066951
upperback  -3.985630035 -1.149950027 -3.02531004
thorax  -0.06547930092 -0.4338999987 -2.965569973
lowerneck  -8.569129944 -10.96030045 -9.220490456
upperneck  16.58729935 -15.09500027 10.51519966
head  8.053409576 -6.720600128 3.384799957
lclavicle  0 -4.497500157e-015 -2.743230041e-014
lhumerus  -48.02360153 26.85300064 66.57559967
lradius  -0.03413008898 -6.507048965e-006 31.14949989
lwrist  4.824992743e-007 -3.790274832e-007 -26.48489952
lhand  -4.416926341e-031 -36.92210007 -10.73649979
lfingers  90 7.125020027 -90
lthumb  94.83951067 -25.57037017 101.0982739
rclavicle  0 -4.497500157e-015 -2.743230041e-014
rhumerus  -62.44929886 -23.5 -38.55170059
rradius  -5.16745672e-007 2.214343908e-008 100.9789963
rwrist  -7.499573258e-005 0.03438235447 -177.9980011
rhand  -1.767284139e-031 2.529230118 -8.186260223
rfingers  -90 -7.125020027 -90
rthumb  -85.80148454 -7.83644224 -61.70170521
rfemur  -12.80036545 16.35272217 12.96048164
rtibia  -1.548228025 -0.8676187992 21.68249321
rfoot  -0.2605981529 -21.60387611 -36.93544006
rtoes  4.169918366 19.57789773 -102.2749496
lfemur  -8.601418495 -17.28911781 -20.25831223
ltibia  2.331316233 -0.963095367 15.2426672
lfoot  0.9652156234 -23.84188461 37.41291428
ltoes  -8.604960611 -18.1230334 -115.9420832
74
root  34.80373292 36.50324964 -14.94880436 8.510237694 -4.537703991 3.801406145
lowerback  -7.367499828 -1.212450027 -0.4301241934
upperback  -3.969929934 -1.17663002 -3.052350044
thorax  -0.02438610047 -0.4465590119 -2.989939928
lowerneck  -8.213029861 -11.34869957 -9.403820038
upperneck  16.41060066 -15.64579868 10.66619968
head  8.018910408 -6.997140408 3.406130075
lclavicle  0 -4.497500157e-015 -2.743230041e-014
lhumerus  -47.96110153 26.86030006 66.52110291
lradius  -0.03455138952 -6.507048965e-006 31.13044167
lwrist  4.824992743e-007 -3.790274832e-007 -26.43800163
lhand  -4.415889985e-031 -36.90420151 -10.68029976
lfingers  90 7.125020027 -90
lthumb  94.81915335 -25.51588605 101.0739958
rclavicle  0 -4.497500157e-015 -2.743230041e-014
rhumerus  -62.34329987 -23.55349731 -37.71560287
rradius  -5.16745672e-007 2.214343908e-008 101.8300018
rwrist  -7.499573258e-005 0.03438235447 -178.246994
rhand  -1.76701974e-031 2.327069998 -7.994709969
rfingers  -90 -7.125020027 -90
rthumb  -85.75183725 -7.991852792 -61.88580688
rfemur  -12.79983997 16.34550095 12.93784237
rtibia  -1.549904823 -0.9053046703 21.68899345
rfoot  -0.2690660954 -21.68345642 -36.89865875
rtoes  4.163994598 19.57911119 -102.2572719
lfemur  -8.587534904 -17.28145599 -20.29221153
ltibia  2.3411026 -0.9878416061 15.23033237
lfoot  0.9631969929 -23.79046631 37.43380737
ltoes  -8.567530048 -18.14029234 -115.8218057
75
root  34.80576943 36.50495574 -14.94823366 8.564340591 -4.609306335 3.761084795
lowerback  -7.328020096 -1.218369961 -0.4961399436
upperback  -3.958729982 -1.180310011 -3.083760023
thorax  -0.03398799896 -0.4479107857 -2.984869957
lowerneck  -7.84954977 -11.74090004 -9.700169563
upperneck  16.2621994 -16.20100021 10.88440037
head  8.010939598 -7.276020527 3.465199947
lclavicle  0 -4.497500157e-015 -2.743230041e-014
lhumerus  -47.89519882 26.77669907 66.55819702
lradius  -0.03496881574 -6.507048965e-006 31.11450005
lwrist  4.824992743e-007 -3.790274832e-007 -26.39319992
lhand  -4.415334415e-031 -36.89459991 -10.69569969
lfingers  90 7.125020027 -90
lthumb  94.81795781 -25.53138087 101.0651898
rclavicle  0 -4.497500157e-015 -2.743230041e-014
rhumerus  -62.21500015 -23.57320213 -36.81839752
rradius  -5.16745672e-007 2.214343908e-008 102.6669998
rwrist  -7.499573258e-005 0.03438235447 -178.6970062
rhand  -1.766973208e-031 2.28963995 -7.897699833
rfingers  -90 -7.125020027 -90
rthumb  -85.71348002 -8.074961342 -61.91569796
rfemur  -12.84664631 16.31300735 12.94015598
rtibia  -1.52768147 -0.9491046667 21.62659073
rfoot  -0.2343125343 -21.7608242 -36.8146286
rtoes  4.139797998 19.58404893 -102.1850753
lfemur  -8.758322716 -17.28386879 -20.1828289
ltibia  2.234290838 -1.00395596 15.41672516
lfoot  0.9858201146 -23.83299446 37.47913742
ltoes  -8.547081499 -18.14968136 -115.756144
76
root  34.80829855 36.50317455 -14.9455093 8.541252136 -4.702011585 3.835930586
lowerback  -7.326865673 -1.21156621 -0.4456723332
upperback  -3.978960037 -1.167240024 -3.069400072
thorax  -0.05572580174 -0.4440562129 -2.996880054
lowerneck  -7.495570183 -12.14260006 -10.00640011
upperneck  16.15810013 -16.76389885 11.04920006
head  8.019200325 -7.562559605 3.505579948
lclavicle  0 -4.497500157e-015 -2.743230041e-014
lhumerus  -47.8470993 26.70509911 66.61329651
lradius  -0.0353811942 -6.507048965e-006 31.10930061
lwrist  4.824992743e-007 -3.790274832e-007 -26.3682003
lhand  -4.418073762e-031 -36.94189835 -10.58399963
lfingers  90 7.125020027 -90
lthumb  94.81628686 -25.42009557 101.1054926
rclavicle  0 -4.497500157e-015 -2.743230041e-014
rhumerus  -62.0904007 -23.60169983 -35.9034996
rradius  -5.16745672e-007 2.214343908e-008 103.4000015
rwrist  -7.499573258e-005 0.03438235447 -178.8379974
rhand  -1.767278639e-031 2.525190115 -8.21088028
rfingers  -90 -7.125020027 -90
rthumb  -85.81407826 -7.814535013 -61.70727191
rfemur  -12.86073685 16.30623817 12.85899162
rtibia  -1.552089095 -1.006001592 21.69309425
rfoot  -0.2550651133 -21.84696007 -36.74158096
rtoes  4.13326857 19.5853762 -102.1655961
lfemur  -8.613584518 -17.25876999 -20.35567284
ltibia  2.355931997 -1.044306636 15.23339939
lfoot  0.98570472 -23.69004822 37.52095413
ltoes  -8.534047592 -18.15565134 -115.7143083
77
root  34.81046421 36.50301836 -14.94207908 8.546601295 -4.767798901 3.876259089
lowerback  -7.3166399 -1.20322001 -0.43617028
upperback  -3.9816401 -1.164800048 -3.075419903
thorax  -0.06441129744 -0.4398803413 -3.008559942
lowerneck  -7.157579899 -12.53969955 -10.37100029
upperneck  16.0788002 -17.33390045 11.32310009
head  8.058259964 -7.843679905 3.586380005
lclavicle  0 -4.497500157e-015 -2.743230041e-014
lhumerus  -47.78860092 26.67329979 66.61930084
lradius  -0.03578737006 -6.507048965e-006 31.06900024
lwrist  4.824992743e-007 -3.790274832e-007 -26.36429977
lhand  -4.41882207e-031 -36.95479965 -10.59980011
lfingers  90 7.125020027 -90
lthumb  94.82563991 -25.43504802 101.1206674
rclavicle  0 -4.497500157e-015 -2.743230041e-014
rhumerus  -61.96530151 -23.71179962 -34.99810028
rradius  -5.16745672e-007 2.214343908e-008 104.1949997
rwrist  -7.499573258e-005 0.03438235447 -178.8220062
rhand  -3.535098273e-031 2.716749907 -8.05976963
rfingers  -90 -7.125020027 -90
rthumb  -85.70183371 -7.960304467 -61.51090001
rfemur  -12.88486195 16.30632973 12.80898762
rtibia  -1.563592911 -1.031566262 21.72282982
rfoot  -0.2537409961 -21.87013435 -36.68071747
rtoes  4.135504555 19.58492193 -102.1722665
lfemur  -8.586640358 -17.2535305 -20.43199539
ltibia  2.397172213 -1.086456299 15.17901897
lfoot  0.9715019464 -23.58562088 37.5129776
ltoes  -8.548507898 -18.14902733 -115.7607232
